<?xml version="1.0" encoding="utf-8"?>
<!-- Generator: Adobe Illustrator 26.2.1, SVG Export Plug-In . SVG Version: 6.00 Build 0)  -->
<svg version="1.1" id="Capa_1" xmlns="http://www.w3.org/2000/svg" xmlns:xlink="http://www.w3.org/1999/xlink" x="0px" y="0px"
	 viewBox="0 0 302.7 76.5" style="enable-background:new 0 0 302.7 76.5;" xml:space="preserve">
<style type="text/css">
	.st0{fill:#1B2A49;}
	.st1{fill:#F5B122;}
</style>
<rect x="9.5" y="60.7" class="st0" width="283.6" height="13.1"/>
<path class="st0" d="M9.5,60.7c90.8-0.4,192.8-0.4,283.6,0C202.3,61.2,100.4,61.2,9.5,60.7L9.5,60.7z"/>
<g>
	<path class="st0" d="M108.5,23c27.4-0.4,58.2-0.4,85.6,0C166.7,23.4,136,23.4,108.5,23L108.5,23z"/>
	<path class="st0" d="M126.6,22.8H176L153,5.1c-1-0.8-2.4-0.8-3.3,0L126.6,22.8z"/>
</g>
<g>
	<g>
		<path class="st0" d="M10.1,57.7V26h7.6v31.7H10.1z"/>
		<path class="st0" d="M22.8,57.7V25h0.7l19.8,18.5V26h7v32.9h-0.7L29.8,40.4v17.3H22.8z"/>
		<path class="st0" d="M52.7,57.7L59.3,25h0.5l12,20.7L83.1,25h0.6l6.6,32.7h-7.2l-2.7-14.5l-8.5,15.6h-0.5L62.2,43l-2.8,14.7H52.7z
			"/>
		<path class="st0" d="M90.7,41.8c0-2.3,0.4-4.5,1.2-6.6c0.8-2,2-3.9,3.6-5.5c1.5-1.5,3.2-2.7,5.2-3.6s4-1.2,6.2-1.2
			s4.2,0.4,6.2,1.2c2,0.8,3.7,2,5.3,3.6c1.5,1.6,2.7,3.4,3.5,5.4c0.8,2,1.2,4.3,1.2,6.6c0,2-0.3,3.8-0.8,5.6
			c-0.6,1.8-1.4,3.3-2.5,4.8c-1.5,2.1-3.4,3.7-5.7,4.8c-2.3,1.1-4.6,1.7-7.2,1.7c-2.1,0-4.2-0.4-6.2-1.2c-2-0.8-3.7-2-5.2-3.6
			c-1.6-1.6-2.8-3.4-3.6-5.5C91.1,46.4,90.7,44.2,90.7,41.8z M98.5,41.8c0,2.8,0.8,5.1,2.4,6.9s3.6,2.8,6,2.8c2.4,0,4.4-0.9,6-2.8
			s2.4-4.2,2.4-6.9c0-2.8-0.8-5.1-2.4-7s-3.6-2.8-6-2.8c-2.4,0-4.3,0.9-6,2.8S98.5,39.1,98.5,41.8z"/>
		<path class="st0" d="M126.1,57.7V26h9.8c3.7,0,6.5,0.7,8.4,2c1.9,1.3,2.8,3.4,2.8,6c0,1.6-0.4,3-1.3,4.1c-0.9,1.1-2.2,2-3.9,2.6
			c1.9,0.4,3.4,1.3,4.5,2.7s1.6,3,1.6,5c0,3-1.1,5.3-3.4,6.9c-2.3,1.6-5.6,2.3-10,2.3H126.1z M133,38.5h2.5c1.5,0,2.7-0.3,3.5-1
			c0.8-0.6,1.3-1.6,1.3-2.7c0-1.2-0.4-2-1.2-2.6c-0.8-0.6-2-0.8-3.7-0.8H133V38.5z M133,52h3.2c1.5,0,2.7-0.4,3.6-1.1
			c0.9-0.7,1.3-1.8,1.3-3.1c0-1.3-0.4-2.2-1.3-2.9s-2-1-3.6-1H133V52z"/>
		<path class="st0" d="M151.4,57.7V26h7.6v31.7H151.4z"/>
		<path class="st0" d="M164.1,57.7V26h7.6v24.9H184v6.8H164.1z"/>
		<path class="st0" d="M185.6,57.7V26h7.6v31.7H185.6z"/>
		<path class="st0" d="M193.3,57.7L209.5,25h0.5l15.8,32.7h-7.9l-2-4.6H203l-2.1,4.6H193.3z M205.2,47.6h8.3l-4.1-9.9L205.2,47.6z"
			/>
		<path class="st0" d="M225.9,57.7V26h8.2c2.6,0,4.6,0.2,6.1,0.5c1.4,0.3,2.7,0.9,3.8,1.7c1.2,0.8,2.1,1.9,2.7,3.1
			c0.6,1.2,1,2.6,1,3.9c0,2-0.5,3.7-1.5,5.2c-1,1.5-2.5,2.7-4.4,3.5l9.7,13.6h-8.6l-8.5-12.4h-1.1v12.4H225.9z M234.5,31.8h-1.2v8.8
			h1.6c1.9,0,3.4-0.4,4.4-1.2c1-0.8,1.5-1.9,1.5-3.3c0-1.5-0.5-2.6-1.5-3.3C238.3,32.1,236.7,31.8,234.5,31.8z"/>
		<path class="st0" d="M252.3,57.7V26h7.6v31.7H252.3z"/>
		<path class="st0" d="M260.1,57.7L276.3,25h0.5l15.8,32.7h-7.9l-2-4.6h-12.9l-2.1,4.6H260.1z M272,47.6h8.3l-4.1-9.9L272,47.6z"/>
	</g>
</g>
<g>
	<g>
		<path class="st1" d="M18.5,70.4l2-5.2h0.7l2.1,5.2h-0.8L22,68.8h-2.2l-0.6,1.6H18.5z M20,68.2h1.8l-0.5-1.4
			c-0.2-0.4-0.3-0.8-0.4-1.1c-0.1,0.3-0.2,0.7-0.3,1L20,68.2z"/>
		<path class="st1" d="M32.6,70.4v-5.2h0.7v4.6h2.6v0.6H32.6z"/>
		<path class="st1" d="M49.3,69.8c0.3,0.2,0.6,0.4,0.9,0.5L50,70.8c-0.4-0.1-0.7-0.3-1.1-0.6c-0.4,0.2-0.8,0.3-1.3,0.3
			c-0.5,0-0.9-0.1-1.3-0.3c-0.4-0.2-0.7-0.5-0.9-1c-0.2-0.4-0.3-0.9-0.3-1.4c0-0.5,0.1-1,0.3-1.4c0.2-0.4,0.5-0.7,0.9-1
			c0.4-0.2,0.8-0.3,1.3-0.3c0.5,0,0.9,0.1,1.3,0.3s0.7,0.5,0.9,1s0.3,0.9,0.3,1.4c0,0.4-0.1,0.8-0.2,1.2
			C49.7,69.3,49.5,69.6,49.3,69.8z M47.8,68.9c0.4,0.1,0.7,0.3,1,0.5c0.4-0.4,0.6-0.9,0.6-1.7c0-0.4-0.1-0.8-0.2-1.1
			c-0.1-0.3-0.4-0.6-0.6-0.7c-0.3-0.2-0.6-0.3-0.9-0.3c-0.5,0-0.9,0.2-1.3,0.5c-0.3,0.4-0.5,0.9-0.5,1.6c0,0.7,0.2,1.2,0.5,1.6
			s0.8,0.5,1.3,0.5c0.2,0,0.5,0,0.7-0.1c-0.2-0.1-0.4-0.2-0.7-0.3L47.8,68.9z"/>
		<path class="st1" d="M63.1,65.2h0.7v3c0,0.5-0.1,0.9-0.2,1.2c-0.1,0.3-0.3,0.6-0.6,0.7c-0.3,0.2-0.7,0.3-1.2,0.3
			c-0.5,0-0.9-0.1-1.2-0.3c-0.3-0.2-0.5-0.4-0.7-0.7c-0.1-0.3-0.2-0.8-0.2-1.3v-3h0.7v3c0,0.5,0,0.8,0.1,1c0.1,0.2,0.2,0.4,0.4,0.5
			s0.5,0.2,0.7,0.2c0.5,0,0.9-0.1,1.1-0.3s0.3-0.7,0.3-1.3V65.2z"/>
		<path class="st1" d="M73.8,70.4v-5.2h0.7v5.2H73.8z"/>
		<path class="st1" d="M84.3,70.4v-5.2H85v4.6h2.6v0.6H84.3z"/>
		<path class="st1" d="M97.1,70.4v-5.2h3.8v0.6h-3.1v1.6h2.9V68h-2.9v1.8h3.2v0.6H97.1z"/>
		<path class="st1" d="M110.7,70.4v-5.2h2.3c0.5,0,0.8,0,1.1,0.1s0.4,0.3,0.6,0.5c0.1,0.2,0.2,0.5,0.2,0.8c0,0.4-0.1,0.7-0.4,0.9
			c-0.2,0.3-0.6,0.4-1.1,0.5c0.2,0.1,0.3,0.2,0.4,0.3c0.2,0.2,0.4,0.4,0.6,0.7l0.9,1.4h-0.9l-0.7-1.1c-0.2-0.3-0.4-0.6-0.5-0.7
			c-0.1-0.2-0.2-0.3-0.3-0.3c-0.1-0.1-0.2-0.1-0.3-0.1c-0.1,0-0.2,0-0.4,0h-0.8v2.3H110.7z M111.4,67.5h1.5c0.3,0,0.6,0,0.7-0.1
			s0.3-0.2,0.4-0.3c0.1-0.1,0.1-0.3,0.1-0.5c0-0.2-0.1-0.4-0.3-0.6s-0.5-0.2-0.8-0.2h-1.6V67.5z"/>
		<path class="st1" d="M135.3,70.4v-5.2h1.8c0.4,0,0.7,0,0.9,0.1c0.3,0.1,0.6,0.2,0.8,0.4c0.3,0.2,0.5,0.5,0.6,0.9
			c0.1,0.4,0.2,0.8,0.2,1.2c0,0.4,0,0.7-0.1,1c-0.1,0.3-0.2,0.6-0.4,0.8c-0.1,0.2-0.3,0.4-0.5,0.5c-0.2,0.1-0.4,0.2-0.6,0.3
			s-0.5,0.1-0.8,0.1H135.3z M136,69.8h1.1c0.3,0,0.6,0,0.8-0.1c0.2-0.1,0.4-0.2,0.5-0.3c0.2-0.2,0.3-0.4,0.4-0.7
			c0.1-0.3,0.1-0.6,0.1-1c0-0.5-0.1-1-0.3-1.3c-0.2-0.3-0.4-0.5-0.6-0.6c-0.2-0.1-0.5-0.1-0.9-0.1H136V69.8z"/>
		<path class="st1" d="M149.3,70.4v-5.2h3.8v0.6H150v1.6h2.9V68H150v1.8h3.2v0.6H149.3z"/>
		<path class="st1" d="M173.6,70.4v-5.2h0.7v5.2H173.6z"/>
		<path class="st1" d="M184.2,70.4v-5.2h0.7l2.7,4.1v-4.1h0.7v5.2h-0.7l-2.7-4.1v4.1H184.2z"/>
		<path class="st1" d="M198.2,70.4v-5.2h1l1.2,3.7c0.1,0.3,0.2,0.6,0.2,0.8c0.1-0.2,0.2-0.5,0.3-0.8l1.2-3.6h0.9v5.2h-0.7V66
			l-1.5,4.3h-0.6l-1.5-4.4v4.4H198.2z"/>
		<path class="st1" d="M216.4,65.2h0.7v3c0,0.5-0.1,0.9-0.2,1.2c-0.1,0.3-0.3,0.6-0.6,0.7c-0.3,0.2-0.7,0.3-1.2,0.3
			c-0.5,0-0.9-0.1-1.2-0.3c-0.3-0.2-0.5-0.4-0.7-0.7c-0.1-0.3-0.2-0.8-0.2-1.3v-3h0.7v3c0,0.5,0,0.8,0.1,1c0.1,0.2,0.2,0.4,0.4,0.5
			s0.5,0.2,0.7,0.2c0.5,0,0.9-0.1,1.1-0.3s0.3-0.7,0.3-1.3V65.2z"/>
		<path class="st1" d="M226.9,70.4v-5.2h3.8v0.6h-3.1v1.6h2.9V68h-2.9v1.8h3.2v0.6H226.9z"/>
		<path class="st1" d="M240.4,70.4v-5.2h1.9c0.4,0,0.7,0.1,1,0.2c0.2,0.1,0.4,0.3,0.6,0.5c0.1,0.2,0.2,0.4,0.2,0.7
			c0,0.2-0.1,0.4-0.2,0.6c-0.1,0.2-0.3,0.4-0.5,0.5c0.3,0.1,0.6,0.2,0.7,0.5c0.2,0.2,0.3,0.5,0.3,0.8c0,0.2-0.1,0.5-0.2,0.7
			s-0.2,0.4-0.4,0.5s-0.3,0.2-0.6,0.3c-0.2,0.1-0.5,0.1-0.8,0.1H240.4z M241.1,67.4h1.1c0.3,0,0.5,0,0.7-0.1
			c0.2-0.1,0.3-0.1,0.4-0.3c0.1-0.1,0.1-0.3,0.1-0.5c0-0.2,0-0.3-0.1-0.5c-0.1-0.1-0.2-0.2-0.4-0.3c-0.2,0-0.4-0.1-0.8-0.1h-1V67.4z
			 M241.1,69.8h1.3c0.2,0,0.4,0,0.5,0c0.2,0,0.3-0.1,0.4-0.1s0.2-0.2,0.3-0.3c0.1-0.1,0.1-0.3,0.1-0.4c0-0.2,0-0.4-0.1-0.5
			c-0.1-0.1-0.2-0.2-0.4-0.3c-0.2-0.1-0.4-0.1-0.8-0.1h-1.2V69.8z"/>
		<path class="st1" d="M254,70.4v-5.2h0.7v4.6h2.6v0.6H254z"/>
		<path class="st1" d="M266.7,70.4v-5.2h3.8v0.6h-3.1v1.6h2.9V68h-2.9v1.8h3.2v0.6H266.7z"/>
		<path class="st1" d="M280,68.7l0.6-0.1c0,0.3,0.1,0.5,0.2,0.6s0.3,0.3,0.5,0.4c0.2,0.1,0.5,0.2,0.8,0.2c0.3,0,0.5,0,0.7-0.1
			c0.2-0.1,0.4-0.2,0.4-0.3s0.1-0.3,0.1-0.4c0-0.2,0-0.3-0.1-0.4c-0.1-0.1-0.3-0.2-0.5-0.3c-0.1-0.1-0.4-0.1-0.9-0.3
			c-0.5-0.1-0.8-0.2-1-0.3c-0.2-0.1-0.4-0.3-0.6-0.5c-0.1-0.2-0.2-0.4-0.2-0.6c0-0.3,0.1-0.5,0.2-0.7c0.1-0.2,0.4-0.4,0.7-0.5
			c0.3-0.1,0.6-0.2,1-0.2c0.4,0,0.7,0.1,1,0.2c0.3,0.1,0.5,0.3,0.7,0.5c0.2,0.2,0.2,0.5,0.3,0.8l-0.7,0c0-0.3-0.2-0.6-0.4-0.7
			c-0.2-0.2-0.5-0.3-0.9-0.3c-0.4,0-0.7,0.1-0.9,0.2c-0.2,0.2-0.3,0.3-0.3,0.6c0,0.2,0.1,0.3,0.2,0.5c0.1,0.1,0.5,0.2,1,0.4
			s0.9,0.2,1.1,0.3c0.3,0.1,0.5,0.3,0.7,0.5c0.1,0.2,0.2,0.5,0.2,0.7c0,0.3-0.1,0.5-0.2,0.8c-0.2,0.2-0.4,0.4-0.7,0.6
			c-0.3,0.1-0.6,0.2-1,0.2c-0.5,0-0.9-0.1-1.2-0.2c-0.3-0.1-0.6-0.3-0.7-0.6C280.1,69.4,280,69.1,280,68.7z"/>
	</g>
</g>
</svg>
